<svg width="60" height="60" viewBox="0 0 60 60" fill="none" xmlns="http://www.w3.org/2000/svg">
<g clip-path="url(#clip0)">
<path d="M55.0742 56.967C55.2841 58.6327 53.903 60.0005 52.2242 60.0005C50.5453 60.0005 49.2111 58.6292 48.9306 56.974C47.4359 48.1524 39.5186 41.4029 30.0001 41.4029C20.4817 41.4029 12.5671 48.1545 11.0726 56.974C10.7921 58.6292 9.4578 60.0005 7.77896 60.0005C6.10011 60.0005 4.71905 58.6327 4.92891 56.967C6.46416 44.7817 17.1254 35.3232 30.0031 35.3232C42.878 35.3232 53.539 44.7817 55.0742 56.967Z" fill="white"/>
<path d="M30.0033 33.3468C20.8139 33.3468 13.3329 25.8628 13.3329 16.6734C13.3298 7.481 20.8108 0 30.0033 0C39.1987 0 46.6797 7.47796 46.6797 16.6734C46.6797 25.8689 39.1987 33.3468 30.0033 33.3468ZM30.0033 6.07964C24.1607 6.07964 19.4095 10.8309 19.4095 16.6734C19.4095 22.516 24.1607 27.2672 30.0033 27.2672C35.8488 27.2672 40.6001 22.516 40.6001 16.6734C40.6001 10.8309 35.8428 6.07964 30.0033 6.07964Z" fill="white"/>
</g>
<defs>
<clipPath id="clip0">
<rect width="60" height="60" fill="white"/>
</clipPath>
</defs>
</svg>
